HIERARCHY
ROOT root     
{
	OFFSET 0.0000 0.0000 0.0000
	CHANNELS 6 Xposition Yposition Zposition Zrotation Yrotation Xrotation
	JOINT pelvis   
	{
		OFFSET 0.0000 0.0000 0.0000
		CHANNELS 3 Zrotation Yrotation Xrotation
		JOINT thorax   
		{
			OFFSET 0.0000 23.0750 -5.0000
			CHANNELS 3 Zrotation Yrotation Xrotation
			JOINT rclavicle
			{
				OFFSET 0.0000 28.0009 0.0000
				CHANNELS 3 Zrotation Yrotation Xrotation
				JOINT rhumerus 
				{
					OFFSET -18.5725 5.5939 0.0000
					CHANNELS 3 Zrotation Yrotation Xrotation
					JOINT rradius  
					{
						OFFSET -24.8459 0.0000 0.0000
						CHANNELS 3 Zrotation Yrotation Xrotation
						JOINT rhand    
						{
							OFFSET -24.5477 0.0000 0.0000
							CHANNELS 3 Zrotation Yrotation Xrotation
							End Site
							{
								OFFSET -8.1826 0.0000 0.0000
							}
						}
					}
				}
			}
			JOINT lclavicle
			{
				OFFSET 0.0000 28.0009 0.0000
				CHANNELS 3 Zrotation Yrotation Xrotation
				JOINT lhumerus 
				{
					OFFSET 18.5725 5.5939 0.0000
					CHANNELS 3 Zrotation Yrotation Xrotation
					JOINT lradius  
					{
						OFFSET 24.8459 0.0000 0.0000
						CHANNELS 3 Zrotation Yrotation Xrotation
						JOINT lhand    
						{
							OFFSET 24.5477 0.0000 0.0000
							CHANNELS 3 Zrotation Yrotation Xrotation
							End Site
							{
								OFFSET 8.1826 0.0000 0.0000
							}
						}
					}
				}
			}
			JOINT head     
			{
				OFFSET 0.0000 35.2030 0.0000
				CHANNELS 3 Zrotation Yrotation Xrotation
				End Site
				{
					OFFSET 0.0000 11.7343 0.0000
				}
			}
		}
		JOINT rfemur   
		{
			OFFSET -8.2817 0.0000 0.0000
			CHANNELS 3 Zrotation Yrotation Xrotation
			JOINT rtibia   
			{
				OFFSET 0.0000 -43.3627 0.0000
				CHANNELS 3 Zrotation Yrotation Xrotation
				JOINT rfoot    
				{
					OFFSET 0.0000 -38.2947 0.0000
					CHANNELS 3 Zrotation Yrotation Xrotation
					JOINT rtoes    
					{
						OFFSET 0.0000 0.0000 16.6054
						CHANNELS 3 Zrotation Yrotation Xrotation
						End Site
						{
							OFFSET 0.0000 0.0000 5.5351
						}
					}
				}
			}
		}
		JOINT lfemur   
		{
			OFFSET 8.2817 0.0000 0.0000
			CHANNELS 3 Zrotation Yrotation Xrotation
			JOINT ltibia   
			{
				OFFSET 0.0000 -43.3627 0.0000
				CHANNELS 3 Zrotation Yrotation Xrotation
				JOINT lfoot    
				{
					OFFSET 0.0000 -38.2947 0.0000
					CHANNELS 3 Zrotation Yrotation Xrotation
					JOINT ltoes    
					{
						OFFSET 0.0000 0.0000 16.6054
						CHANNELS 3 Zrotation Yrotation Xrotation
						End Site
						{
							OFFSET 0.0000 0.0000 5.5351
						}
					}
				}
			}
		}
	}
}
MOTION
Frames: 8
Frame Time: .0333333
97.291 88.13 14.961 -137.953 -85.0422 164.55 0 -0 0 4.8939 -8.37249 -4.06738 0.0648008 -4.52008 -1.61792e-08 125.4 81.9415 64.1087 -0 44.2825 -0 -3.90329 11.5972 -0.396514 1.27144 4.91573 -1.92264e-06 18.7526 -62.1744 -64.3276 0 -41.1275 0 5.32772 -5.39582 -0.251209 0.720202 2.17124 -19.9534 0.916821 -7.13061 -42.5553 -0 -0 51.4366 -1.74981e-07 -5.87284 3.62505 -0.372605 7.52374e-06 -50.2138 1.97855 8.80944 -6.30298 -0 -0 16.7 -3.7753e-06 9.22094 18.9541 3.0185 -7.39918e-06 -61.0067 
95.602 88.478 14.727 -135.431 -85.1023 162.154 0 -0 0 5.58937 -8.69481 -4.31187 1.29438 -4.11119 6.48017e-07 121.558 80.3195 59.8009 -0 45.8533 -0 -6.03009 13.944 -0.738123 0.845408 4.86014 -5.21843e-07 18.798 -62.0095 -64.6027 0 -40.5018 0 5.48758 -5.54034 -0.2657 -0.0961988 2.62477 -20.3301 1.77265 -7.1773 -43.1406 -0 -0 47.7698 -4.17022e-06 -5.26713 3.80678 -0.350696 -5.87901e-06 -51.8192 2.47784 8.97689 -5.62702 -0 -0 16.9664 1.33172e-05 9.04858 21.0281 3.2706 2.17541e-05 -58.1313 
93.916 88.752 14.487 -133.437 -85.1092 160.284 0 -0 0 6.22999 -8.92751 -4.54881 2.51955 -3.68254 2.6714e-07 117.936 78.8293 56.2171 -0 47.3304 -0 -8.43189 16.584 -1.23101 0.526899 4.85709 -6.17681e-07 18.8095 -62.0571 -65.4187 0 -39.7512 0 5.63987 -5.74683 -0.283298 -0.898784 3.04957 -20.7328 2.51644 -7.04994 -43.6455 -0 -0 44.0103 4.18426e-07 -4.54526 4.02132 -0.319405 2.80658e-06 -53.6108 2.94128 9.07761 -5.01291 -0 -0 17.5207 1.69189e-05 9.06285 22.5975 3.50748 6.87549e-07 -54.9239 
92.227 88.948 14.244 -132.033 -85.0838 158.985 0 -0 0 6.80287 -9.06944 -4.75574 3.71103 -3.26182 -1.17749e-06 114.385 77.4809 53.1869 -3.76959e-07 48.6876 -8.33176e-07 -11.1388 19.3995 -1.90977 0.338907 4.89984 2.51556e-07 18.7333 -62.3257 -66.7693 0 -38.9205 0 5.81006 -5.99574 -0.304506 -1.67589 3.44581 -21.1538 3.13119 -6.75896 -44.0368 -0 -0 40.1789 -4.2461e-06 -3.73614 4.33586 -0.282894 3.3667e-06 -55.3685 3.3615 9.11317 -4.43223 -0 -0 18.3594 4.71873e-05 9.25035 23.6835 3.74282 4.83118e-06 -51.7739 
90.528 89.062 14.001 -131.282 -85.06 158.3 0 -0 0 7.28655 -9.1303 -4.90817 4.84564 -2.87212 -3.44371e-06 110.801 76.2834 50.5714 -0 49.9147 -0 -14.1518 22.2358 -2.79472 0.296606 4.97414 -8.64312e-08 18.5225 -62.803 -68.6137 0 -38.0619 0 6.03233 -6.25355 -0.3298 -2.41061 3.81459 -21.583 3.601 -6.33456 -44.292 -0 -0 36.3271 2.36106e-06 -2.88035 4.81603 -0.241997 -3.78828e-06 -56.8669 3.72707 9.09026 -3.8582 -0 -0 19.4779 5.73784e-05 9.58288 24.3308 3.9789 1.28113e-06 -48.9764 
88.809 89.088 13.763 -131.177 -85.0111 158.182 0 -0 0 7.66165 -9.12806 -4.98749 5.90686 -2.53204 4.95515e-08 107.154 75.238 48.2935 -0 51.0086 -0 -17.4244 24.9081 -3.87671 0.402001 5.06021 3.72682e-07 18.1661 -63.4615 -70.8889 0 -37.2374 0 6.35284 -6.47835 -0.359902 -3.08392 4.15951 -22.0054 3.92077 -5.8235 -44.3971 -0 -0 32.5463 4.66552e-07 -2.0243 5.50715 -0.194404 -1.3745e-06 -57.9427 4.02983 9.03143 -3.27324 -0 -0 20.8908 2.56116e-05 10.0102 24.5886 4.20057 -4.45864e-05 -46.6288 
87.061 89.022 13.537 -131.808 -85.0159 158.711 0 -0 0 7.89672 -9.08341 -4.97366 6.8907 -2.25595 -4.15715e-06 103.395 74.3544 46.2654 -0 51.9792 -0 -20.8534 27.2311 -5.10404 0.649198 5.13435 2.65658e-07 17.6562 -64.2568 -73.4837 2.35264e-07 -36.5081 -7.13295e-07 6.82587 -6.63277 -0.395997 -3.67529 4.48532 -22.4066 4.09188 -5.30018 -44.361 -0 -0 28.98 2.69016e-06 -1.19306 6.40473 -0.133098 6.00471e-07 -58.5199 4.24415 8.91059 -2.63276 -0 -0 22.554 -1.12012e-05 10.5449 24.5656 4.42532 -1.73996e-05 -44.9784 
85.278 88.86 13.327 -133.144 -85.0586 159.833 0 -0 0 7.98552 -9.01658 -4.8664 7.79246 -2.05008 2.54509e-06 99.5107 73.621 44.4185 -0 52.8381 -0 -24.2584 29.031 -6.36965 1.0106 5.17553 6.83487e-07 17.0269 -65.1307 -76.2635 2.29785e-07 -35.9114 -7.09078e-07 7.51505 -6.69342 -0.440095 -4.17088 4.80019 -22.7694 4.14314 -4.834 -44.2153 -0 -0 25.8011 -1.03926e-07 -0.407903 7.45067 -0.0529 3.95799e-07 -58.5998 4.36392 8.73905 -1.92807 -0 -0 24.4542 6.65874e-05 11.1609 24.3429 4.64933 -4.5243e-05 -43.9633 
